<?xml version="1.0" encoding="UTF-8" standalone="no"?><!-- Generator: Gravit.io --><svg xmlns="http://www.w3.org/2000/svg" xmlns:xlink="http://www.w3.org/1999/xlink" style="isolation:isolate" viewBox="0 0 500 500" width="500pt" height="500pt"><defs><clipPath id="_clipPath_hWo21jTcK4ZmQZOVLHi4fN7QOARPKW4t"><rect width="500" height="500"/></clipPath></defs><g clip-path="url(#_clipPath_hWo21jTcK4ZmQZOVLHi4fN7QOARPKW4t)"><path d=" M 250 116.521 C 245.709 116.443 241.872 116.581 238.878 116.985 C 236.392 117.318 230.292 118.124 225.322 118.774 C 220.352 119.426 203.516 123.681 202.374 124.276 C 198.609 126.238 197.852 125.802 187.628 115.81 C 177.001 105.422 175.713 104.249 170.032 99.804 C 167.943 98.169 159.403 91.416 156.156 88.873 C 152.398 85.931 124.055 67.712 107.495 68.018 C 106.523 68.036 104.068 67.47 100.543 71.494 C 98.852 73.937 97.735 78.13 97.059 82.157 C 95.18 93.355 95.424 119.685 97.042 139.618 C 98.021 151.674 98.773 158.057 99.177 163.601 C 99.582 169.144 99.988 172.764 100.567 177.851 C 102.601 195.739 103.079 223.558 100.232 229.987 C 99.441 231.775 97.912 238.113 96.84 244.237 C 94.949 255.053 95.817 288.438 96.611 298.46 C 96.857 301.565 97.27 305.086 98.294 311.493 C 94.748 311.767 87.281 312.029 54.038 312.362 L 10.482 312.362 L 8.173 313.945 C 4.183 316.679 2.852 322.863 5.252 327.51 C 7.794 332.431 4.725 332.137 57.444 332.521 C 83.634 332.713 105.597 333.133 106.253 333.454 C 110.257 335.426 107.764 338.934 101.238 340.512 C 98.754 341.113 61.709 350.788 50.188 354.095 C 38.665 357.402 35.86 368.553 45.665 373.554 C 49.365 375.441 53.943 374.927 64.743 371.404 C 67.037 370.657 98.818 362.277 106.453 360.57 Q 109.129 359.971 119.723 357.386 L 122.124 360.638 C 123.446 362.426 125.23 364.776 126.09 365.859 C 129.382 370 129.538 369.79 105.51 393.624 C 81.713 417.231 81.17 417.931 82.084 423.811 C 83.069 430.146 89.662 433.652 96.033 431.228 C 97.045 430.844 107.915 420.518 120.191 408.282 C 145.622 382.932 144.401 385.599 150.256 391.116 C 157.908 398.33 192.773 418.358 217.328 423.796 C 231.121 426.85 243.7 427.258 250 427.209 C 256.3 427.159 268.879 426.85 282.672 423.796 C 307.227 418.358 342.092 398.33 349.744 391.116 C 355.599 385.599 354.378 382.932 379.81 408.282 C 392.085 420.518 402.955 430.844 403.967 431.228 C 410.338 433.652 416.931 430.146 417.916 423.811 C 418.83 417.931 418.287 417.231 394.49 393.624 C 370.462 369.79 370.618 370 373.91 365.859 C 374.77 364.776 376.554 362.426 377.876 360.638 L 380.277 357.386 Q 390.871 359.971 393.548 360.57 C 401.182 362.277 432.963 370.657 435.257 371.404 C 446.057 374.927 450.635 375.441 454.335 373.554 C 464.14 368.553 461.335 357.402 449.812 354.095 C 438.291 350.788 401.246 341.113 398.762 340.512 C 392.236 338.934 389.743 335.426 393.747 333.454 C 394.403 333.133 416.366 332.713 442.556 332.521 C 495.275 332.137 492.206 332.431 494.748 327.51 C 497.148 322.863 495.817 316.679 491.827 313.945 L 489.518 312.362 L 445.962 312.362 C 412.719 312.029 405.252 311.767 401.707 311.493 C 402.731 305.086 403.143 301.565 403.389 298.46 C 404.183 288.438 405.051 255.053 403.159 244.237 C 402.088 238.113 400.559 231.775 399.768 229.987 C 396.921 223.558 397.399 195.739 399.433 177.851 C 400.012 172.764 400.418 169.144 400.823 163.601 C 401.227 158.057 401.979 151.674 402.958 139.618 C 404.576 119.685 404.819 93.355 402.941 82.157 C 402.265 78.13 401.148 73.937 399.457 71.494 C 395.932 67.47 393.477 68.036 392.505 68.018 C 375.945 67.712 347.602 85.931 343.844 88.873 C 340.597 91.416 332.057 98.169 329.968 99.804 C 324.287 104.249 322.999 105.422 312.372 115.81 C 302.148 125.802 301.391 126.238 297.626 124.276 C 296.484 123.681 279.648 119.426 274.678 118.774 C 269.708 118.124 263.608 117.318 261.122 116.985 C 258.128 116.581 254.291 116.443 250 116.521 L 250 116.521 Z  M 259.019 207.5 C 263.399 211.881 263.399 218.983 259.019 223.363 C 254.638 227.744 247.536 227.744 243.155 223.363 C 238.774 218.983 238.774 211.881 243.155 207.5 C 247.536 203.119 254.638 203.119 259.019 207.5 Z  M 219.674 258.331 C 222.896 261.553 226.019 264.676 229.961 266.584 C 231.82 289.81 236.752 351.158 236.653 356.313 C 236.545 358.317 237.293 360.273 238.711 361.693 C 240.817 363.8 244.139 364.542 246.37 364.592 C 249.715 364.667 263.175 364.147 263.225 361.618 C 263.324 354.083 263.101 352.323 263.125 349.225 C 263.175 344.565 255.863 342.458 254.772 339.731 C 253.681 337.004 254.178 335.765 255.293 334.055 C 256.408 332.344 259.929 330.858 261.911 328.924 C 263.993 326.892 264.241 324.909 264.34 321.934 C 264.439 319.555 264.266 317.596 262.63 315.91 C 260.449 313.63 254.277 313.903 254.327 309.144 C 254.375 304.385 261.738 304.806 263.993 301.956 C 266.249 299.105 265.802 292.462 264.613 290.628 C 263.424 288.793 256.31 288.125 254.599 285.423 C 254.028 284.506 253.806 281.258 254.698 279.87 C 255.59 278.482 262.605 275.384 263.498 273.996 C 264.587 272.311 264.737 269.237 265.233 267.105 C 270.735 264.924 274.899 262.098 279.386 257.612 C 296.364 240.632 296.885 213.639 280.576 197.33 C 264.266 181.02 237.33 181.598 220.351 198.577 C 203.372 215.555 203.365 242.021 219.674 258.331 L 219.674 258.331 Z " fill-rule="evenodd" fill="rgb(255,224,102)"/></g></svg>